<?xml version="1.0" encoding="utf-8"?>
<!-- Generator: Adobe Illustrator 24.2.3, SVG Export Plug-In . SVG Version: 6.00 Build 0)  -->
<svg version="1.1" id="图层_1" xmlns="http://www.w3.org/2000/svg" xmlns:xlink="http://www.w3.org/1999/xlink" x="0px" y="0px"
	 viewBox="0 0 24 24" style="enable-background:new 0 0 24 24;" xml:space="preserve">
<style type="text/css">
	.st0{fill:#F62C3C;}
	.st1{fill:#0D6AFF;}
	.st2{fill:#1283FF;}
</style>
<path class="st0" d="M16.5,5l-2-2c-1.4-1.4-3.7-1.4-5.1,0l-2,2c-0.4,0.4-0.4,1,0,1.4l3.8,3.8c0.4,0.4,1,0.4,1.4,0l3.8-3.8
	C16.9,6,16.9,5.4,16.5,5z"/>
<path class="st1" d="M5,7.5l-2,2c-1.4,1.4-1.4,3.7,0,5.1l2,2c0.4,0.4,1,0.4,1.4,0l3.8-3.8c0.4-0.4,0.4-1,0-1.4L6.4,7.5
	C6,7.1,5.4,7.1,5,7.5z"/>
<path class="st1" d="M20.9,9.5l-2-2c-0.4-0.4-1-0.4-1.4,0l-3.8,3.8c-0.4,0.4-0.4,1,0,1.4l3.8,3.8c0.4,0.4,1,0.4,1.4,0l2-2
	C22.3,13.2,22.3,10.9,20.9,9.5z"/>
<path class="st2" d="M7.5,19l2,2c1.4,1.4,3.7,1.4,5.1,0l2-2c0.4-0.4,0.4-1,0-1.4l-3.8-3.8c-0.4-0.4-1-0.4-1.4,0l-3.8,3.8
	C7.1,18,7.1,18.6,7.5,19z"/>
</svg>
